<?xml version="1.0" encoding="utf-8"?>
<!-- Generator: Adobe Illustrator 19.0.0, SVG Export Plug-In . SVG Version: 6.00 Build 0)  -->
<svg version="1.1" id="Layer_1" xmlns:sketch="http://www.bohemiancoding.com/sketch/ns"
	 xmlns="http://www.w3.org/2000/svg" xmlns:xlink="http://www.w3.org/1999/xlink" x="0px" y="0px" width="14px" height="14px"
	 viewBox="-15 17 14 14" style="enable-background:new -15 17 14 14;" xml:space="preserve">
<g transform="translate(-1806.000000, -71.000000)" sketch:type="MSArtboardGroup">
	<g transform="translate(100.000000, 66.000000)" sketch:type="MSLayerGroup">
		<path class="st0" d="M1702.6,36c-0.3,0-0.5-0.1-0.7-0.3l-2.8-2.8c-0.8,0.4-1.6,0.5-2.4,0.5c-3.1,0-5.7-2.6-5.7-5.7
				s2.6-5.7,5.7-5.7s5.7,2.6,5.7,5.7c0,0.9-0.2,1.7-0.5,2.4l2.8,2.8c0.4,0.4,0.4,1,0,1.4l-1.3,1.3C1703.1,35.9,1702.8,36,1702.6,36z
				 M1696.6,24c-2,0-3.7,1.7-3.7,3.7s1.7,3.7,3.7,3.7c0.8,0,1.6-0.3,2.2-0.7c0.2-0.1,0.4-0.2,0.5-0.2c0-0.2,0.1-0.4,0.2-0.5
				c0.5-0.6,0.7-1.4,0.7-2.2C1700.3,25.7,1698.7,24,1696.6,24z"/>
	</g>
</g>
</svg>
