<?xml version="1.0" encoding="utf-8"?>
<!-- Generator: Adobe Illustrator 18.1.1, SVG Export Plug-In . SVG Version: 6.00 Build 0)  -->
<svg version="1.1" id="Layer_1" xmlns:sketch="http://www.bohemiancoding.com/sketch/ns"
	 xmlns="http://www.w3.org/2000/svg" xmlns:xlink="http://www.w3.org/1999/xlink" x="0px" y="0px" width="30px" height="14px"
	 viewBox="-3 5 30 14" enable-background="new -3 5 30 14" xml:space="preserve">
		<path fill-rule="evenodd" clip-rule="evenodd" fill="#2d292a" d="M24,9c-1.7,0-3,1.3-3,3c0,1.7,1.3,3,3,3s3-1.3,3-3C27,10.3,25.7,9,24,9z M0,9
			c-1.7,0-3,1.3-3,3c0,1.7,1.3,3,3,3c1.7,0,3-1.3,3-3C3,10.3,1.7,9,0,9z M12,9c-1.7,0-3,1.3-3,3c0,1.7,1.3,3,3,3c1.7,0,3-1.3,3-3
			C15,10.3,13.7,9,12,9z"/>
</svg>
